<svg width="134" height="23" viewBox="0 0 134 23" fill="none" xmlns="http://www.w3.org/2000/svg">
<path d="M67 9.27339C88.1749 9.27339 100.251 11.0792 120.5 17.2734V17.7734C100.346 11.6082 88.0757 10.2734 67 10.2734C45.9243 10.2734 33.6538 11.6082 13.5 17.7734V17.2734C33.7487 11.0792 45.8251 9.27339 67 9.27339Z" fill="url(#paint0_linear_1_124)"/>
<g clip-path="url(#clip0_1_124)">
<path d="M40.9312 17.7108C40.9848 17.5108 41.1904 17.392 41.3905 17.4456L42.1149 17.6398C42.3149 17.6934 42.4337 17.899 42.3801 18.099L41.9918 19.5479C41.9382 19.748 41.7326 19.8667 41.5326 19.8131L40.8081 19.619C40.6081 19.5654 40.4893 19.3598 40.5429 19.1597L40.9312 17.7108ZM37.8412 14.7226C37.9448 14.9019 37.8833 15.1313 37.704 15.2348L36.4051 15.9847C36.2258 16.0882 35.9964 16.0268 35.8929 15.8474L35.518 15.1981C35.4144 15.0187 35.4758 14.7893 35.6552 14.6858L36.954 13.9359C37.1334 13.8324 37.3627 13.8938 37.4663 14.0732L37.8412 14.7226ZM48.4617 18.1173C48.5652 18.2966 48.5038 18.526 48.3244 18.6295L47.6751 19.0045C47.4957 19.108 47.2663 19.0466 47.1628 18.8672L46.4129 17.5684C46.3094 17.389 46.3708 17.1597 46.5502 17.0561L47.1996 16.6812C47.3789 16.5776 47.6083 16.6391 47.7118 16.8184L48.4617 18.1173ZM36.8116 8.45417C37.0116 8.50778 37.1304 8.7134 37.0768 8.91345L36.8826 9.6379C36.829 9.83795 36.6234 9.95667 36.4234 9.90306L34.9745 9.51483C34.7744 9.46123 34.6557 9.2556 34.7093 9.05555L34.9034 8.33111C34.957 8.13106 35.1627 8.01234 35.3627 8.06595L36.8116 8.45417ZM52.0249 12.5306C52.225 12.5842 52.3437 12.7898 52.2901 12.9899L52.096 13.7143C52.0424 13.9143 51.8367 14.0331 51.6367 13.9795L50.1878 13.5912C49.9878 13.5376 49.869 13.332 49.9226 13.132L50.1168 12.4075C50.1704 12.2075 50.376 12.0887 50.576 12.1423L52.0249 12.5306ZM40.5865 4.47704C40.69 4.6564 40.6286 4.88575 40.4492 4.9893L39.7999 5.36422C39.6205 5.46777 39.3911 5.40632 39.2876 5.22696L38.5377 3.92813C38.4342 3.74877 38.4956 3.51942 38.675 3.41587L39.3244 3.04095C39.5037 2.9374 39.7331 2.99885 39.8366 3.17821L40.5865 4.47704ZM51.4815 6.84736C51.585 7.02672 51.5236 7.25606 51.3442 7.35962L50.0454 8.1095C49.866 8.21305 49.6367 8.1516 49.5331 7.97224L49.1582 7.32286C49.0546 7.1435 49.1161 6.91415 49.2954 6.8106L50.5943 6.06072C50.7736 5.95716 51.003 6.01862 51.1065 6.19798L51.4815 6.84736ZM45.0076 2.49748C45.0612 2.29743 45.2668 2.17871 45.4669 2.23231L46.1913 2.42643C46.3913 2.48003 46.5101 2.68566 46.4565 2.88571L46.0682 4.3346C46.0146 4.53465 45.809 4.65336 45.609 4.59976L44.8845 4.40565C44.6845 4.35204 44.5657 4.14642 44.6193 3.94637L45.0076 2.49748Z" fill="url(#paint1_linear_1_124)"/>
<path d="M46.3975 11.7992C46.8263 10.1988 45.8766 8.55375 44.2762 8.12493C42.6758 7.6961 41.0308 8.64585 40.6019 10.2462C40.1731 11.8466 41.1228 13.4917 42.7232 13.9205C44.3236 14.3493 45.9687 13.3996 46.3975 11.7992ZM47.8464 12.1874C47.2031 14.588 44.7356 16.0126 42.335 15.3694C39.9344 14.7261 38.5098 12.2586 39.153 9.85802C39.7963 7.45742 42.2638 6.0328 44.6644 6.67604C47.065 7.31928 48.4896 9.78679 47.8464 12.1874Z" fill="url(#paint2_linear_1_124)"/>
<circle cx="43.4997" cy="11.0227" r="3" transform="rotate(15 43.4997 11.0227)" fill="#F1F9F1"/>
</g>
<defs>
<linearGradient id="paint0_linear_1_124" x1="13.5" y1="12.4417" x2="120.5" y2="12.4417" gradientUnits="userSpaceOnUse">
<stop stop-color="#1F3822" stop-opacity="0"/>
<stop offset="0.276786" stop-color="#295139" stop-opacity="0.6"/>
<stop offset="1" stop-color="#1F3822" stop-opacity="0"/>
</linearGradient>
<linearGradient id="paint1_linear_1_124" x1="45.8291" y1="2.32937" x2="41.1703" y2="19.716" gradientUnits="userSpaceOnUse">
<stop offset="0.2" stop-color="#1F3822"/>
<stop offset="0.8" stop-color="#437A61"/>
<stop offset="1" stop-color="#5B9A74"/>
</linearGradient>
<linearGradient id="paint2_linear_1_124" x1="45.8291" y1="2.32937" x2="41.1703" y2="19.716" gradientUnits="userSpaceOnUse">
<stop offset="0.2" stop-color="#1F3822"/>
<stop offset="0.8" stop-color="#437A61"/>
<stop offset="1" stop-color="#5B9A74"/>
</linearGradient>
<clipPath id="clip0_1_124">
<rect width="18" height="18" fill="white" transform="translate(37.1357) rotate(15)"/>
</clipPath>
</defs>
</svg>
