<svg width="18" height="15" viewBox="0 0 18 15" fill="none" xmlns="http://www.w3.org/2000/svg">
<path d="M7.9319 1.00619C8.09623 1.22826 8.04932 1.54151 7.82716 1.7057L7.4248 2.00307C5.75318 3.23932 4.22184 4.6465 2.85547 6.19936H17.5C17.7761 6.19936 18 6.42322 18 6.69936V7.69936C18 7.97551 17.7761 8.19936 17.5 8.19936H2.85547C4.11792 9.63412 5.52124 10.9444 7.0459 12.1105L7.4248 12.3957L7.82716 12.693C8.04932 12.8572 8.09623 13.1705 7.9319 13.3925L7.33728 14.1961C7.17309 14.418 6.86016 14.4649 6.63817 14.3008L6.23535 14.0031L5.83105 13.6994C3.95427 12.264 2.24954 10.6232 0.748047 8.80972L0.428711 8.41909C0.143987 8.06362 0 7.63183 0 7.19936C0 6.7669 0.143988 6.33511 0.428711 5.97964L0.748047 5.58901C2.35662 3.64625 4.19871 1.9019 6.23535 0.395653L6.63817 0.0979356C6.86016 -0.066126 7.17309 -0.0192677 7.33728 0.202619L7.9319 1.00619Z" fill="#1F1F1F"/>
</svg>
