<svg width="17" height="17" viewBox="0 0 17 17" fill="none" xmlns="http://www.w3.org/2000/svg">
<path d="M1.75524 9.86625C2.00489 9.90803 2.17342 10.1443 2.13164 10.3939L2.056 10.846C1.84538 12.1039 1.78495 13.3725 1.87338 14.6255C3.12668 14.714 4.39556 14.6544 5.65374 14.4438L6.10582 14.3681C6.35548 14.3263 6.59174 14.4949 6.63351 14.7445L6.7848 15.6487C6.82658 15.8984 6.65805 16.1346 6.40839 16.1764L5.95631 16.252C4.62111 16.4756 3.27245 16.5484 1.93604 16.4687L1.36402 16.4248C1.0684 16.3975 0.79531 16.2812 0.576262 16.0972L0.485849 16.0139C0.282903 15.811 0.144335 15.5497 0.0919684 15.2611L0.07496 15.1357C-0.0659038 13.613 -0.00776548 12.0694 0.24773 10.5435L0.323376 10.0914C0.365151 9.84171 0.601405 9.67319 0.851065 9.71496L1.75524 9.86625ZM16.2518 10.5435L16.3386 11.1164C16.4932 12.2637 16.5368 13.4182 16.4684 14.5637L16.4246 15.1357C16.3933 15.4737 16.2456 15.782 16.0137 16.0139C15.8107 16.2169 15.5495 16.3554 15.2608 16.4078L15.1355 16.4248C13.8031 16.5481 12.4547 16.5192 11.1161 16.3389L10.5432 16.252L10.0911 16.1764C9.84148 16.1346 9.67295 15.8984 9.71473 15.6487L9.86602 14.7445C9.90779 14.4949 10.144 14.3263 10.3937 14.3681L10.8458 14.4438L11.3605 14.5216C12.4491 14.6684 13.543 14.7019 14.6253 14.6255C14.7016 13.5432 14.6681 12.4494 14.5214 11.3608L14.4435 10.846L14.3679 10.3939C14.3261 10.1443 14.4946 9.90803 14.7443 9.86625L15.6485 9.71496C15.8981 9.67319 16.1344 9.84171 16.1762 10.0914L16.2518 10.5435ZM1.93604 0.0313302C3.08154 -0.0370047 4.23608 0.00652575 5.38339 0.161132L5.95631 0.247964L6.40839 0.32361C6.65805 0.365385 6.82658 0.601639 6.7848 0.851299L6.63351 1.75547C6.59173 2.00513 6.35548 2.17365 6.10582 2.13188L5.65374 2.05623L5.13901 1.97835C4.05012 1.83159 2.95592 1.79715 1.87338 1.87362C1.79692 2.95615 1.83135 4.05035 1.97812 5.13924L2.056 5.65397L2.20728 6.5581L0.851065 6.78504C0.601405 6.82681 0.365151 6.65829 0.323376 6.40863L0.24773 5.95654L0.160897 5.38362C-0.0194817 4.04505 -0.0482966 2.69668 0.07496 1.36426L0.0919684 1.23893C0.144335 0.950306 0.282904 0.689027 0.485849 0.486083L0.576262 0.402831C0.795313 0.21884 1.06841 0.102541 1.36402 0.0751942L1.93604 0.0313302ZM11.1161 0.161132C12.4547 -0.0192476 13.8031 -0.0480624 15.1355 0.0751942L15.2608 0.0922026C15.5082 0.137077 15.7355 0.245132 15.9233 0.402831L16.0137 0.486083L16.0969 0.576496C16.2546 0.764243 16.3627 0.991599 16.4076 1.23893L16.4246 1.36426L16.4684 1.93628C16.5482 3.27269 16.4753 4.62135 16.2518 5.95654L16.1762 6.40863C16.1344 6.65829 15.8981 6.82681 15.6485 6.78504L14.7443 6.63374C14.4946 6.59197 14.3261 6.35571 14.3679 6.10606L14.4435 5.65397C14.6542 4.39579 14.7138 3.12691 14.6253 1.87362C13.3723 1.78519 12.1036 1.84562 10.8458 2.05623L10.3937 2.13188C10.144 2.17365 9.90779 2.00513 9.86602 1.75547L9.71473 0.851299C9.67295 0.601639 9.84148 0.365385 10.0911 0.32361L10.5432 0.247964L11.1161 0.161132Z" fill="#111111"/>
</svg>
