<svg width="18" height="18" viewBox="0 0 18 18" fill="none" xmlns="http://www.w3.org/2000/svg">
<path d="M8.38139 9.03776C8.75408 8.78742 9.24064 8.78742 9.61333 9.03776L9.69096 9.09562L10.0975 9.434C10.8986 10.1241 11.6314 10.8944 12.2845 11.7338L12.6038 12.1593L12.8244 12.4631C12.9461 12.6306 12.9088 12.8652 12.7412 12.9869L12.1346 13.4273C11.967 13.549 11.7325 13.5117 11.6108 13.3441L11.3909 13.0412L11.1001 12.6552C10.4751 11.8518 9.76975 11.1197 8.99736 10.4689C8.22497 11.1197 7.51965 11.8518 6.89458 12.6552L6.60381 13.0412L6.38392 13.3441C6.26226 13.5117 6.02774 13.549 5.86013 13.4273L5.25349 12.9869C5.08588 12.8652 5.04866 12.6306 5.17037 12.4631L5.39091 12.1593L5.71025 11.7338C6.47225 10.7544 7.34273 9.86919 8.30376 9.09562L8.38139 9.03776ZM8.38139 4.53776C8.75408 4.28742 9.24064 4.28742 9.61333 4.53776L9.69096 4.59562L10.0975 4.934C10.8986 5.62413 11.6314 6.39435 12.2845 7.2338L12.6038 7.65934L12.8244 7.96305C12.9461 8.13065 12.9088 8.36517 12.7412 8.48686L12.1346 8.92728C11.967 9.04897 11.7325 9.01173 11.6108 8.84411L11.3909 8.54118L11.1001 8.15519C10.4751 7.35177 9.76975 6.61965 8.99736 5.96891C8.22497 6.61965 7.51965 7.35177 6.89458 8.15519L6.60381 8.54118L6.38392 8.84411C6.26226 9.01173 6.02774 9.04897 5.86013 8.92728L5.25349 8.48686C5.08588 8.36517 5.04866 8.13065 5.17037 7.96305L5.39091 7.65934L5.71025 7.2338C6.47225 6.25437 7.34273 5.36919 8.30376 4.59562L8.38139 4.53776Z" fill="white"/>
</svg>
