<svg width="14" height="13" viewBox="0 0 14 13" fill="none" xmlns="http://www.w3.org/2000/svg">
<path d="M4.91131 1.5276C5.18946 1.43306 5.49155 1.43304 5.7697 1.5276L5.90593 1.58326L6.00701 1.63746C6.23078 1.7736 6.37768 1.97404 6.48089 2.13624C6.60346 2.32893 6.73443 2.5851 6.88152 2.87086L7.6762 4.41481L7.72966 4.51661V4.51734C7.73036 4.51778 7.73106 4.51831 7.73186 4.51881C7.75073 4.53064 7.77706 4.54621 7.83074 4.5774L9.42229 5.50245L9.77532 5.70973C9.88482 5.77595 9.98442 5.83972 10.0705 5.90089C10.24 6.02136 10.4483 6.19386 10.5663 6.45973L10.6161 6.59083C10.7022 6.85718 10.7021 7.14404 10.6161 7.41041L10.5663 7.54225C10.4483 7.80802 10.24 7.98064 10.0705 8.10109C9.98442 8.16225 9.88481 8.22603 9.77532 8.29225L9.42229 8.49952L7.83074 9.42457C7.77712 9.45573 7.75072 9.47134 7.73186 9.48317C7.73119 9.48359 7.73026 9.48352 7.72966 9.4839V9.48536L7.6762 9.58717L6.88152 11.1304C6.73438 11.4162 6.60349 11.6722 6.48089 11.865C6.37766 12.0273 6.23096 12.2283 6.00701 12.3645L5.90593 12.4187C5.59223 12.5656 5.23571 12.5839 4.91131 12.4736L4.77434 12.4187C4.49252 12.2866 4.31806 12.0504 4.20012 11.865C4.13879 11.7686 4.07545 11.6563 4.00896 11.5325L3.79949 11.1304L3.00481 9.58717C2.97647 9.53212 2.96219 9.50481 2.95134 9.48536L2.95061 9.4839L2.94915 9.48317L2.85027 9.42457L1.25872 8.49952C1.00957 8.35475 0.78259 8.22336 0.610524 8.10109C0.462225 7.99569 0.284168 7.85029 0.163014 7.63746L0.114674 7.54225C-0.0382248 7.19779 -0.0382248 6.80419 0.114674 6.45973L0.163014 6.36451C0.28417 6.15161 0.462191 6.00631 0.610524 5.90089C0.782582 5.77861 1.00956 5.64724 1.25872 5.50245L2.85027 4.5774L2.94915 4.51881L2.95134 4.51661C2.9622 4.49715 2.9764 4.47 3.00481 4.41481L3.79949 2.87086L4.00896 2.46876C4.07538 2.34505 4.13885 2.23256 4.20012 2.13624C4.31805 1.95091 4.49274 1.71534 4.77434 1.58326L4.91131 1.5276ZM5.32512 2.85255C5.28408 2.91708 5.23866 2.9969 5.18377 3.09938L4.98455 3.4817L4.1906 5.02491C4.15838 5.08751 4.11878 5.16579 4.06902 5.24391L4.01555 5.32154C3.98504 5.362 3.95226 5.4006 3.91741 5.43727L3.80755 5.54127C3.75875 5.58213 3.70691 5.61769 3.6574 5.64894L3.5197 5.73024L1.92888 6.65528C1.65693 6.81332 1.49292 6.90932 1.3825 6.9878C1.37629 6.99222 1.371 6.99705 1.36565 7.00099C1.371 7.00493 1.37629 7.00976 1.3825 7.01417C1.49293 7.09266 1.65688 7.18863 1.92888 7.34669L3.5197 8.27101L3.6574 8.35304C3.70689 8.38428 3.75878 8.41987 3.80755 8.4607L3.91741 8.56471L4.01555 8.68043L4.06902 8.75734C4.11889 8.83558 4.15833 8.91437 4.1906 8.97706L4.98455 10.5203L5.18377 10.9026C5.23866 11.0051 5.28408 11.0849 5.32512 11.1494C5.33015 11.1573 5.33603 11.1639 5.3405 11.1707C5.34497 11.1639 5.35087 11.1573 5.35589 11.1494C5.43796 11.0204 5.53717 10.8297 5.69646 10.5203L6.49041 8.97706L6.56511 8.83497C6.59376 8.78401 6.62721 8.73116 6.66546 8.68043L6.76287 8.56471C6.79771 8.52802 6.83461 8.49325 6.87346 8.4607L6.94817 8.40358C7.02373 8.34981 7.10037 8.30642 7.1613 8.27101L8.75212 7.34669L9.08538 7.1504C9.17417 7.09682 9.24327 7.05343 9.29851 7.01417C9.30454 7.00989 9.30941 7.00482 9.31462 7.00099C9.30941 6.99715 9.30454 6.99209 9.29851 6.9878C9.24322 6.94851 9.17429 6.90449 9.08538 6.85084L8.75212 6.65528L7.1613 5.73024C7.10039 5.69484 7.0237 5.65213 6.94817 5.5984L6.87346 5.54127C6.83461 5.50873 6.79772 5.47395 6.76287 5.43727L6.66546 5.32154C6.6271 5.27068 6.59381 5.21735 6.56511 5.16627L6.49041 5.02491L5.69646 3.4817C5.53723 3.17236 5.43795 2.9816 5.35589 2.85255C5.35078 2.84453 5.34504 2.83742 5.3405 2.83058C5.33596 2.83744 5.33024 2.84451 5.32512 2.85255ZM11.0519 0.0422474C11.2411 -0.0140339 11.4414 -0.014131 11.6305 0.0422474L11.7236 0.0752064L11.8488 0.137462C11.9631 0.20517 12.048 0.286859 12.1073 0.349865C12.1846 0.431914 12.2672 0.536498 12.3447 0.633312L12.8888 1.313L12.9965 1.44776C13.093 1.57083 13.1989 1.72035 13.2646 1.89381L13.299 2.00074L13.3305 2.16627C13.3446 2.27752 13.3446 2.39048 13.3305 2.50172L13.299 2.66652C13.2419 2.88601 13.1123 3.07178 12.9965 3.21949L12.8888 3.35426L12.3447 4.03395C12.2671 4.1309 12.1848 4.23599 12.1073 4.31813C12.0479 4.38116 11.9632 4.46281 11.8488 4.53053L11.7236 4.59205C11.5078 4.67961 11.2726 4.69067 11.0519 4.62501L10.9582 4.59205C10.7786 4.5191 10.6544 4.4022 10.5751 4.31813C10.4977 4.23599 10.4146 4.1309 10.3371 4.03395L9.79363 3.35426C9.68003 3.21226 9.50898 3.01635 9.41716 2.77345L9.38347 2.66652C9.327 2.44927 9.327 2.21799 9.38347 2.00074L9.41716 1.89381C9.50901 1.65106 9.68008 1.45494 9.79363 1.313L10.3371 0.633312L10.4557 0.486095C10.4959 0.437528 10.5364 0.390974 10.5751 0.349865C10.6544 0.265781 10.7784 0.148215 10.9582 0.0752064L11.0519 0.0422474ZM10.8344 2.1465C10.7913 2.20037 10.7581 2.24242 10.7297 2.27906C10.7122 2.30163 10.6985 2.31946 10.6879 2.334C10.6985 2.34849 10.7123 2.36648 10.7297 2.38893C10.7581 2.42556 10.7913 2.46763 10.8344 2.5215L11.3405 3.15431L11.8473 2.5215L11.9528 2.38893C11.97 2.36671 11.9826 2.34841 11.9931 2.334C11.9826 2.31959 11.97 2.30129 11.9528 2.27906L11.8473 2.1465L11.3405 1.51295L10.8344 2.1465Z" fill="white"/>
</svg>
