<svg width="15" height="21" viewBox="0 0 15 21" fill="none" xmlns="http://www.w3.org/2000/svg">
<path d="M12.8334 7.33339C12.8334 5.77788 12.8247 5.06947 12.7099 4.56996L12.6544 4.36676C12.3143 3.3202 11.5233 2.48577 10.5059 2.08673L10.3 2.01243C9.78251 1.84428 9.11091 1.83339 7.33339 1.83339C5.77788 1.83339 5.06947 1.84208 4.56996 1.95693L4.36676 2.01243C3.3202 2.35251 2.48577 3.14351 2.08673 4.16087L2.01243 4.36676C1.84428 4.88427 1.83339 5.55587 1.83339 7.33339V17.2565L1.96409 17.1446L3.10097 16.1787C3.44403 15.8934 3.75519 15.6454 4.0436 15.4339C4.62966 15.0042 5.17727 14.6866 5.79547 14.5065L5.98435 14.4546C6.93295 14.2146 7.9296 14.2322 8.87132 14.5065L9.10048 14.5799C9.62742 14.7672 10.1104 15.0579 10.6232 15.4339C11.2 15.8568 11.8663 16.4277 12.7027 17.1446L12.8334 17.2565V7.33339ZM14.6667 19.2501C14.6667 19.608 14.4583 19.933 14.1332 20.0826C13.8487 20.2134 13.5201 20.1894 13.2604 20.0253L13.1539 19.9456L11.5094 18.5366C10.6519 17.8016 10.0467 17.284 9.53912 16.9118C9.10336 16.5924 8.78057 16.4116 8.4846 16.3067L8.35927 16.2664C7.77328 16.0957 7.15483 16.074 6.56085 16.202L6.30751 16.2664C5.9761 16.363 5.62559 16.5468 5.12766 16.9118C4.87385 17.098 4.59553 17.3208 4.27366 17.5886L3.15737 18.5366L1.51292 19.9456C1.24111 20.1786 0.858822 20.2322 0.533588 20.0826C0.208463 19.933 5.89182e-05 19.608 5.89182e-05 19.2501V7.33339C5.89162e-05 5.69856 -0.0109896 4.66339 0.269509 3.80011L0.380511 3.49127C0.979061 1.96539 2.23045 0.779653 3.80011 0.269509L3.96482 0.220274C4.79577 -0.00952818 5.80091 5.89182e-05 7.33339 5.89182e-05C8.96822 5.89182e-05 10.0034 -0.0109896 10.8667 0.269509L11.1755 0.380511C12.7014 0.979061 13.8871 2.23045 14.3973 3.80011L14.4465 3.96482C14.6763 4.79577 14.6667 5.80091 14.6667 7.33339V19.2501Z" fill="#1F1F1F"/>
</svg>
