<svg width="13" height="11" viewBox="0 0 13 11" fill="none" xmlns="http://www.w3.org/2000/svg">
<path d="M7.67318 9.33333C7.85727 9.33333 8.00651 9.48257 8.00651 9.66667V10.3333C8.00651 10.5174 7.85727 10.6667 7.67318 10.6667H7C6.81591 10.6667 6.66667 10.5174 6.66667 10.3333V9.66667C6.66667 9.48257 6.81591 9.33333 7 9.33333H7.67318ZM10 4.66667C10.2738 4.66667 10.52 4.8339 10.6204 5.08854C10.8157 5.58365 10.9976 5.88274 11.2174 6.10417C11.4369 6.32518 11.7383 6.51314 12.2448 6.71289L12.3359 6.75716C12.5386 6.87527 12.6667 7.09376 12.6667 7.33333C12.6667 7.57291 12.5386 7.7914 12.3359 7.90951L12.2448 7.95378C11.7383 8.15352 11.4369 8.34149 11.2174 8.5625C10.9976 8.78393 10.8157 9.08302 10.6204 9.57812C10.52 9.83277 10.2738 10 10 10C9.72625 10 9.48003 9.83277 9.37956 9.57812C9.18429 9.08302 9.00238 8.78393 8.78255 8.5625C8.56307 8.34149 8.26167 8.15352 7.75521 7.95378C7.50057 7.85331 7.33333 7.60709 7.33333 7.33333C7.33333 7.05958 7.50057 6.81336 7.75521 6.71289C8.26167 6.51314 8.56307 6.32518 8.78255 6.10417C9.00238 5.88274 9.18429 5.58365 9.37956 5.08854L9.42383 4.9974C9.54193 4.79471 9.76042 4.66667 10 4.66667ZM5 8C5.18409 8 5.33333 8.14924 5.33333 8.33333V9C5.33333 9.18409 5.18409 9.33333 5 9.33333H0.333334C0.149239 9.33333 0 9.1841 0 9L0 8.33333C0 8.14924 0.149238 8 0.333333 8L5 8ZM10 6.73177C9.9167 6.84082 9.82716 6.94492 9.72917 7.04362C9.62481 7.14874 9.51355 7.24413 9.39648 7.33333C9.51355 7.42253 9.62481 7.51793 9.72917 7.62305C9.82703 7.72162 9.91679 7.82534 10 7.93425C10.0832 7.82534 10.173 7.72162 10.2708 7.62305C10.3751 7.51805 10.4859 7.42245 10.6029 7.33333C10.4859 7.24422 10.3751 7.14861 10.2708 7.04362C10.1728 6.94492 10.0833 6.84082 10 6.73177ZM7.33333 4C7.51743 4 7.66667 4.14924 7.66667 4.33333V5C7.66667 5.18409 7.51743 5.33333 7.33333 5.33333L0.333333 5.33333C0.149238 5.33333 0 5.18409 0 5L0 4.33333C0 4.14924 0.149238 4 0.333333 4L7.33333 4ZM11.6667 0C11.8508 0 12 0.149238 12 0.333333V1C12 1.18409 11.8508 1.33333 11.6667 1.33333L0.333333 1.33333C0.149238 1.33333 0 1.18409 0 1L0 0.333334C0 0.149239 0.149238 0 0.333333 0L11.6667 0Z" fill="white"/>
</svg>
